<?xml version="1.0" encoding="UTF-8"?><svg xmlns="http://www.w3.org/2000/svg" width="525px" height="388px" viewBox="0 0 640 473"><defs><style>.cls-1{fill:#0080be}.cls-2{fill:#403b38}.cls-3{fill:#0b0b0b;}.cls-4{fill:#fff;font-size:62px;font-family:helvetica;letter-spacing:-1px;word-spacing:-1px; }</style></defs><g id="Ebene_2" data-name="Ebene 2"><rect class="cls-1" x="0" y="381" width="640" height="91.56"/><path class="cls-1" d="m235.17,361.03c-73.09,0-132.48-.62-145.81-2.49-21.37-3-37.32-12.08-46.93-19.17-9.57-7.06-14.97-13.6-16.02-14.93-2.27-2.55-23.01-26.54-25.8-56.81-2.73-29.58,4.52-50.88,5.34-53.19.76-2.43,8.42-25.61,26.62-40.08,18.36-14.61,37.32-22.22,46.28-25.28-.09-20.82,2.22-39.12,6.87-54.42,4.57-15.04,10.46-24.37,14.5-30.08.71-1,1.49-2.15,2.32-3.37,4.6-6.74,11.55-16.92,22.57-27.07,13.08-12.05,29.06-21.38,47.49-27.73,10.74-3.7,22.56-5.82,35.14-6.3,9.97-.38,20.44.26,31.12,1.91,18.17,2.8,30.64,7.52,31.16,7.72l-4.49,11.76s0,0,0,0h0c-.3-.11-12.1-4.53-28.88-7.08-15.38-2.34-38.27-3.57-59.94,3.9-38.74,13.34-55.01,37.18-63.76,49.99-.86,1.26-1.68,2.46-2.44,3.54-4.93,6.97-19.93,28.2-19.02,80.67.06,3.41-2.18,6.48-5.44,7.46-4.09,1.24-25.51,8.22-45.63,24.23-15.78,12.55-22.4,33.86-22.46,34.07l-.12.35c-.07.19-7.23,20.17-4.67,47.84,2.5,27.06,22.54,49.45,22.75,49.68l.19.21.16.21s4.85,6.23,14.04,12.93c8.38,6.12,22.27,13.95,40.83,16.56,12.61,1.77,70.13,2.37,141.43,2.37,143.16,0,341.97-2.39,344.96-2.43h.09c5.09,0,20.05-1.36,27.89-7.56,9.16-7.25,18.1-17.04,21.52-39.37,2.96-19.38-11.04-38.54-25.71-46.73l-3.27-1.82.04-3.74c0-.28.05-28.95-14.76-48.23-14.59-18.98-40.79-42.84-99.7-30.91-2.22.45-4.51-.1-6.28-1.52-1.77-1.41-2.82-3.52-2.87-5.78-.07-3.04-.79-11.34-5.8-22.59-6.41-14.41-17.31-28.13-32.39-40.78l8.09-9.65c32.65,27.39,40.43,53.98,42.19,66.95,13.05-2.26,25.32-2.97,36.53-2.1,11.46.88,22.15,3.43,31.75,7.58,19.48,8.41,31.27,21.8,38.45,31.13,14.24,18.53,16.81,43.1,17.27,52.34,17.54,11.29,32.54,33.89,28.9,57.74-1.76,11.49-4.95,21.01-9.78,29.09-4.09,6.85-9.29,12.65-16.37,18.25-12.73,10.08-34.19,10.28-35.68,10.28-12.43.15-202.5,2.43-342.45,2.43Z"/><path class="cls-1" d="m373.65,92.52c11.84-5.83,19.9-17.29,19.9-30.48,0-19.09-16.87-34.57-37.69-34.57-11.33,0-21.49,4.58-28.4,11.84-.58.61-1.14,1.24-1.67,1.89,4.94,4.86,23.35,23.94,12.39,51.37-2.07,5.17-6.26,10.54-12.29,15.64,0,0,29.76,19,35.85,53.44h50.18s7.2-43.2-38.27-69.13Z"/><path class="cls-2" d="m224.99,189.83h129.29c0-43.51-19.45-70.17-43.26-79.95,13.66-6.64,22.94-19.69,22.94-34.69,0-21.74-19.49-39.37-43.54-39.37s-43.54,17.63-43.54,39.37c0,14.73,8.95,27.57,22.2,34.32-24.19,9.47-44.09,36.23-44.09,80.32Z"/><path class="cls-3" d="m453.86,257.75l-1.64-2.34c-4.01-5.74-11.24-8.34-17.98-6.47l-9.27,2.57-.06.02c-.42.12-42.71,12.4-60.24,16.53-15.46,3.64-30.15,3.52-32.79,3.46l-31.5-7.46c9.78-5.81,17.08-13.91,20.09-19.07,1.18-2.02,1.33-4.51.4-6.66-.93-2.15-2.84-3.75-5.12-4.28l-101.26-23.51-65.71,36.46v-1.76c0-3.93-3.2-7.12-7.12-7.12h-22.65v9.16h20.62v59.92h-20.62v9.16h22.65c3.93,0,7.12-3.2,7.12-7.12v-7.36h70.88c1.41,0,2.84.1,4.24.29l101.49,13.94c2.61.36,5.23.54,7.86.54,6.72,0,13.43-1.16,19.75-3.44l94.09-33.95h.03c4.17-1.54,7.33-4.85,8.66-9.09,1.33-4.24.64-8.76-1.91-12.4Zm-6.83,9.66c-.47,1.51-1.59,2.68-3.07,3.23l-94.07,33.94c-7.41,2.67-15.45,3.52-23.26,2.45l-101.49-13.94c-1.81-.25-3.66-.37-5.48-.37h-70.88v-35.23l67.07-37.22,95.36,22.14c-4.05,5.53-13.45,14.69-25.46,18.2l-56.88-13.46s-.05-.01-.08-.02h-.02s0,0,0,0c-.29-.06-.58-.09-.88-.09-2.53,0-4.58,2.05-4.58,4.58,0,2.1,1.42,3.87,3.36,4.41h0s104,24.62,104,24.62l.45.02c.7.03,17.42.6,35.66-3.69,17.67-4.16,58.54-16.02,60.67-16.64l9.24-2.56c3.01-.83,6.24.33,8.03,2.89l1.64,2.34c.91,1.3,1.15,2.9.68,4.41Z"/></g><g id="Ebene_3" data-name="Ebene 3"><path class="cls-3" d="m413.13,238.42c-.44,0-.89-.06-1.33-.18-1.27-.36-2.32-1.19-2.96-2.34l-6.55-11.79-3.27.1-6.53,11.47c-1.21,2.12-3.74,3.03-6.02,2.15l-13.62-5.21c-2.4-.92-3.67-3.47-2.96-5.94l3.83-13.33-2.2-2.1-12.16,3.31c-2.35.64-4.84-.57-5.8-2.8l-5.48-12.79c-1-2.34-.02-5.1,2.24-6.28l11.48-5.99v-2.98l-11.6-8.19c-2.01-1.42-2.66-4.13-1.5-6.31l6.46-12.16c1.09-2.05,3.49-3.06,5.72-2.4l10.38,3.06,3.06-2.83-3.36-11.27c-.73-2.46.58-5.09,2.98-5.99l12.86-4.81c2.26-.85,4.78.06,5.98,2.16h0s5.89,10.3,5.89,10.3l3.91.06,6.88-10.78c1.33-2.09,4.02-2.85,6.25-1.78l11.89,5.7c2.19,1.05,3.29,3.59,2.56,5.9l-3.44,10.87,4.03,3.77,10.2-3.61c2.44-.86,5.14.33,6.15,2.7l5.21,12.24c.91,2.13.18,4.64-1.73,5.96l-10.88,7.51.1,2.73,12.33,8.08c2.22,1.46,2.88,4.38,1.5,6.65l-6.76,11.13c-1.17,1.92-3.48,2.8-5.63,2.14l-11.37-3.49-3.93,3.3,3.66,10.83c.75,2.22-.18,4.67-2.22,5.83l-11.86,6.75c-.75.43-1.58.64-2.42.64Zm-10.37-20.05c1.78,0,3.41.96,4.28,2.52l6.39,11.5,10.55-6.01-3.63-10.72c-.65-1.93-.07-4.02,1.49-5.32l4.7-3.95c1.28-1.08,3-1.43,4.6-.94l11.19,3.43,6.02-9.91-12.03-7.88c-1.33-.87-2.16-2.34-2.21-3.92l-.13-3.6c-.06-1.68.73-3.26,2.12-4.22l10.7-7.38-4.65-10.91-9.94,3.52c-1.73.61-3.65.21-4.99-1.04l-4.77-4.47c-1.37-1.28-1.89-3.27-1.32-5.06l3.38-10.68-10.59-5.08-6.74,10.55c-.92,1.44-2.5,2.29-4.21,2.26l-4.83-.07c-1.73-.03-3.33-.97-4.19-2.47l-5.77-10.1-11.49,4.3,3.28,11.02c.53,1.78,0,3.74-1.37,5l-3.78,3.49c-1.26,1.17-3.07,1.59-4.72,1.1l-10.19-3-5.81,10.93,11.35,8.01c1.3.92,2.08,2.42,2.08,4.01v3.9c0,1.83-1.01,3.5-2.64,4.35l-11.25,5.86,4.9,11.44,11.92-3.24c1.65-.45,3.44,0,4.67,1.18l2.89,2.76c1.32,1.26,1.83,3.14,1.33,4.9l-3.76,13.08,12.26,4.69,6.41-11.25c.84-1.47,2.41-2.42,4.11-2.48l4.22-.13c.05,0,.11,0,.16,0Zm-14.93-80.55h0Z"/><path class="cls-3" d="m400.26,205.07c-10.87,0-19.71-8.84-19.71-19.71s8.84-19.71,19.71-19.71,19.71,8.84,19.71,19.71-8.84,19.71-19.71,19.71Zm0-33.7c-7.71,0-13.99,6.28-13.99,13.99s6.28,13.99,13.99,13.99,13.99-6.28,13.99-13.99-6.28-13.99-13.99-13.99Z"/></g><text class="cls-4" x="35" y="450">Microsoft Intune Suite</text></svg>